/* XPM */
static char *result[] = {
/* columns rows colors chars-per-pixel */
"32 32 135 2 ",
"   c #240420",
".  c #250520",
"X  c #240521",
"o  c #250521",
"O  c #250621",
"+  c #270722",
"@  c #260723",
"#  c #270723",
"$  c #280824",
"%  c #2A0B27",
"&  c #2B0D28",
"*  c #2D0E29",
"=  c #2E0F29",
"-  c #2E0F2A",
";  c #31132D",
":  c #32152E",
">  c #33162F",
",  c #341731",
"<  c #371A33",
"1  c #391C36",
"2  c #391D37",
"3  c #3A1E37",
"4  c #3B1E37",
"5  c #3F223B",
"6  c #3F233B",
"7  c #3F233C",
"8  c #40243D",
"9  c #41253E",
"0  c #41273E",
"q  c #43273E",
"w  c #43273F",
"e  c #452A43",
"r  c #462B42",
"t  c #462B43",
"y  c #472C43",
"u  c #482C44",
"i  c #482D44",
"p  c #482E45",
"a  c #492E46",
"s  c #492F46",
"d  c #492F47",
"f  c #4A3047",
"g  c #4E344B",
"h  c #51384E",
"j  c #573F55",
"k  c #5D455A",
"l  c #5E475B",
"z  c #624A5F",
"x  c #644D61",
"c  c #675165",
"v  c #685265",
"b  c #705C6E",
"n  c #735E70",
"m  c #816E7E",
"M  c #847282",
"N  c #877584",
"B  c #8C7B89",
"V  c #8C7B8A",
"C  c #8D7D8C",
"Z  c #928290",
"A  c #928291",
"S  c #938492",
"D  c #948592",
"F  c #958693",
"G  c #968693",
"H  c #968795",
"J  c #978896",
"K  c #9E909C",
"L  c #A0929E",
"P  c #A1939F",
"I  c #A496A2",
"U  c #A99DA8",
"Y  c #A99EA8",
"T  c #ADA1AB",
"R  c #B2A8B0",
"E  c #B3A8B2",
"W  c #B4A9B2",
"Q  c #B4A9B3",
"!  c #B5ABB4",
"~  c #B7ACB5",
"^  c #B7ACB6",
"/  c #B9B0B9",
"(  c #BBB1BA",
")  c #BCB3BC",
"_  c #BEB4BC",
"`  c #BEB4BD",
"'  c #BEB5BD",
"]  c #C1B9C0",
"[  c #C2B9C1",
"{  c #C2BAC1",
"}  c #C4BCC4",
"|  c #C8C1C8",
" . c #C9C1C8",
".. c #C9C1C9",
"X. c #CCC4CB",
"o. c #CFC8CE",
"O. c #D0C8CF",
"+. c #D2CBD1",
"@. c #D2CCD2",
"#. c #D3CCD2",
"$. c #D4CDD3",
"%. c #D4CED4",
"&. c #D5CED4",
"*. c #D5CFD4",
"=. c #D6D0D5",
"-. c #D6D1D6",
";. c #D7D2D6",
":. c #D8D2D6",
">. c #D8D2D7",
",. c #D8D3D7",
"<. c #DAD4D9",
"1. c #DAD5D9",
"2. c #DAD5DA",
"3. c #DCD7DC",
"4. c #DDD8DB",
"5. c #DDD8DC",
"6. c #E0DBDF",
"7. c #E4E0E4",
"8. c #E4E1E4",
"9. c #E5E1E5",
"0. c #E5E2E5",
"q. c #EDEAED",
"w. c #EDEBED",
"e. c #F3F1F3",
"r. c #F9F8F9",
"t. c #FBF9FB",
"y. c #FBFAFB",
"u. c #FBFBFB",
"i. c #FBFBFC",
"p. c gray99",
"a. c #FDFCFC",
"s. c #FDFCFD",
"d. c #FEFEFE",
"f. c white",
"g. c None",
/* pixels */
"g.g.g.g.g.g.g.g.g.g.g.g.                g.g.g.g.g.g.g.g.g.g.g.g.",
"g.g.g.g.g.g.g.g.g.                            g.g.g.g.g.g.g.g.g.",
"g.g.g.g.g.g.g.                                    g.g.g.g.g.g.g.",
"g.g.g.g.g.g.                                        g.g.g.g.g.g.",
"g.g.g.g.g.                                            g.g.g.g.g.",
"g.g.g.g.            Q @.#.$.%.&.*.=.=.-.;.:.>.>.>.7     g.g.g.g.",
"g.g.g.              2.f.f.f.f.f.f.f.f.f.f.f.f.f.f.t       g.g.g.",
"g.g.                ,.f.f.f.f.f.f.f.f.f.f.f.f.f.f.u         g.g.",
"g.g.                m F D S Z A K ] r.f.f.f.f.f.f.p         g.g.",
"g.                                  1 / f.f.f.f.f.s           g.",
"g.                                    O T f.f.f.f.d           g.",
"g.                            4 6       & 8.f.f.f.d           g.",
"                          O U d.f.! #     V f.f.f.s             ",
"                          c f.f.f.f.b     k f.f.f.s             ",
"                          C f.f.f.f.5._ ' X.f.f.f.a             ",
"            2 4.3.<.e     G f.f.f.f.f.f.f.f.f.f.f.i             ",
"            9 f.f.f.g     J f.f.f.f.f.f.f.f.f.f.f.y             ",
"            8 f.f.f.h     V f.f.f.f.1.W E { f.f.f.r             ",
"            , f.f.f.x     z f.f.f.f.v     j f.f.f.8             ",
"            X e.f.f.H     . P u.i.L o     B f.f.t.%             ",
"g.            ` f.f.w.:       = -       * 0.f.f. .            g.",
"g.            l f.f.f.( $             @ R f.f.f.n             g.",
"g.              ) f.f.f.} w         0 [ f.f.f.+.+             g.",
"g.g.            < 7.f.f.f.s...P P | a.f.f.f.q.w             g.g.",
"g.g.              q 6.f.f.f.f.f.f.f.f.f.f.9.f               g.g.",
"g.g.g.              ; I y.f.f.f.f.f.f.p.Y >               g.g.g.",
"g.g.g.g.                3 M ~ O.o.^ N 5                 g.g.g.g.",
"g.g.g.g.g.                                            g.g.g.g.g.",
"g.g.g.g.g.g.                                        g.g.g.g.g.g.",
"g.g.g.g.g.g.g.                                  g.g.g.g.g.g.g.g.",
"g.g.g.g.g.g.g.g.g.                            g.g.g.g.g.g.g.g.g.",
"g.g.g.g.g.g.g.g.g.g.g.g.                g.g.g.g.g.g.g.g.g.g.g.g."
};
