/* XPM */
static char *result[] = {
/* columns rows colors chars-per-pixel */
"64 64 244 2 ",
"   c #240420",
".  c #250420",
"X  c #240421",
"o  c #250421",
"O  c #250521",
"+  c #260621",
"@  c #260622",
"#  c #260722",
"$  c #270722",
"%  c #270723",
"&  c #270823",
"*  c #280823",
"=  c #280824",
"-  c #290924",
";  c #280925",
":  c #290925",
">  c #290A25",
",  c #2A0B25",
"<  c #2A0A26",
"1  c #2A0B26",
"2  c #2A0B27",
"3  c #2B0C27",
"4  c #2C0C27",
"5  c #2B0D28",
"6  c #2C0D28",
"7  c #2D0E29",
"8  c #2D0E2A",
"9  c #2E0E2A",
"0  c #2E0F2A",
"q  c #2F102B",
"w  c #2F112B",
"e  c #2F122C",
"r  c #31122C",
"t  c #31122D",
"y  c #31132D",
"u  c #32132D",
"i  c #32142E",
"p  c #33152F",
"a  c #361933",
"s  c #371A33",
"d  c #391B35",
"f  c #391C35",
"g  c #3B1F38",
"h  c #3C2038",
"j  c #3D203A",
"k  c #3E223B",
"l  c #40243C",
"z  c #41263D",
"x  c #432740",
"c  c #452941",
"v  c #442A41",
"b  c #452B42",
"n  c #462B42",
"m  c #472C43",
"M  c #472D44",
"N  c #482D44",
"B  c #4C3349",
"V  c #4D334A",
"C  c #4E344B",
"Z  c #4E354B",
"A  c #533950",
"S  c #553D53",
"D  c #563E53",
"F  c #573F55",
"G  c #584055",
"H  c #594156",
"J  c #5A4358",
"K  c #5B4358",
"L  c #5D455A",
"P  c #5E455A",
"I  c #5F475B",
"U  c #60485D",
"Y  c #604A5E",
"T  c #614A5E",
"R  c #634D60",
"E  c #644D60",
"W  c #665063",
"Q  c #675063",
"!  c #675064",
"~  c #675265",
"^  c #685265",
"/  c #695265",
"(  c #685266",
")  c #695266",
"_  c #695367",
"`  c #695467",
"'  c #6A5468",
"]  c #6B5468",
"[  c #6B5568",
"{  c #6C5669",
"}  c #6C566A",
"|  c #6C576A",
" . c #6D586A",
".. c #6D586B",
"X. c #6E586A",
"o. c #6E596B",
"O. c #6E596C",
"+. c #6F5A6C",
"@. c #6F5A6D",
"#. c #705A6C",
"$. c #705B6E",
"%. c #715C6E",
"&. c #745F72",
"*. c #756172",
"=. c #766173",
"-. c #766273",
";. c #776375",
":. c #776475",
">. c #786576",
",. c #7A6777",
"<. c #7B6878",
"1. c #7B6879",
"2. c #7C6979",
"3. c #7C6A7A",
"4. c #7D6A7B",
"5. c #7E6B7B",
"6. c #806D7D",
"7. c #816F7E",
"8. c #806F7F",
"9. c #816F7F",
"0. c #827180",
"q. c #837180",
"w. c #847282",
"e. c #857483",
"r. c #877585",
"t. c #877786",
"y. c #8E7D8C",
"u. c #8F7E8D",
"i. c #91808E",
"p. c #948392",
"a. c #938492",
"s. c #948492",
"d. c #958593",
"f. c #958693",
"g. c #988996",
"h. c #998997",
"j. c #9A8B99",
"k. c #9B8C99",
"l. c #9B8D99",
"z. c #9B8D9A",
"x. c #9C8E9B",
"c. c #9E909C",
"v. c #9E909D",
"b. c #A1939F",
"n. c #A698A3",
"m. c #A699A4",
"M. c #A699A5",
"N. c #A799A5",
"B. c #A79AA5",
"V. c #A79AA6",
"C. c #A89AA6",
"Z. c #A89BA6",
"A. c #A99BA7",
"S. c #A99CA7",
"D. c #AA9CA8",
"F. c #AA9EA8",
"G. c #AB9EA9",
"H. c #AB9FAA",
"J. c #ADA0AA",
"K. c #ACA1AC",
"L. c #ADA1AC",
"P. c #AEA1AC",
"I. c #AEA3AC",
"U. c #AFA2AD",
"Y. c #AFA3AD",
"T. c #AFA4AE",
"R. c #B0A4AE",
"E. c #B0A5AE",
"W. c #B0A4AF",
"Q. c #B1A5AF",
"!. c #B0A5B0",
"~. c #B1A5B0",
"^. c #B1A6B0",
"/. c #B1A7B0",
"(. c #B2A7B2",
"). c #B2A8B1",
"_. c #B4A9B4",
"`. c #B5ABB4",
"'. c #B6ABB4",
"]. c #B6ACB4",
"[. c #B6ACB5",
"{. c #B8ACB6",
"}. c #B8ADB6",
"|. c #B9AEB7",
" X c #B9AFB8",
".X c #BAB0B9",
"XX c #BAB1B9",
"oX c #C0B6BE",
"OX c #C0B7BF",
"+X c #C3BAC1",
"@X c #C3BAC2",
"#X c #C3BBC3",
"$X c #C4BBC2",
"%X c #C5BCC4",
"&X c #C7BEC5",
"*X c #CBC5CB",
"=X c #CDC6CC",
"-X c #CFC8CE",
";X c #D1C9CF",
":X c #D1CACF",
">X c #D1CAD0",
",X c #D1CBD1",
"<X c #D3CCD2",
"1X c #D3CDD2",
"2X c #D6D0D5",
"3X c #D7D1D7",
"4X c #D9D3D9",
"5X c #DDD7DC",
"6X c #DEDADD",
"7X c #E1DCE0",
"8X c #E3DFE2",
"9X c #E6E2E5",
"0X c #E7E3E5",
"qX c #E6E2E6",
"wX c #E6E3E6",
"eX c #E9E6E9",
"rX c #ECE9EC",
"tX c #EDEAEC",
"yX c #EDEAED",
"uX c #EDEBED",
"iX c #EFEDEF",
"pX c #F1EFF0",
"aX c #F1EEF1",
"sX c #F3F2F3",
"dX c #F4F2F4",
"fX c #F5F3F4",
"gX c #F5F4F5",
"hX c #F6F4F5",
"jX c #F6F5F6",
"kX c #F8F6F8",
"lX c #F9F8F9",
"zX c #F9F9FA",
"xX c #FAF9FA",
"cX c #FBFAFB",
"vX c #FCFBFB",
"bX c #FCFBFC",
"nX c gray99",
"mX c #FDFCFD",
"MX c #FDFDFD",
"NX c #FEFEFE",
"BX c #FEFFFE",
"VX c #FFFEFF",
"CX c white",
"ZX c None",
/* pixels */
"ZXZXZXZXZXZXZXZXZXZXZXZXZXZXZXZXZXZXZXZXZXZXZXZXZXZX                      ZXZXZXZXZXZXZXZXZXZXZXZXZXZXZXZXZXZXZXZXZXZXZXZXZXZXZX",
"ZXZXZXZXZXZXZXZXZXZXZXZXZXZXZXZXZXZXZXZXZXZX                                      ZXZXZXZXZXZXZXZXZXZXZXZXZXZXZXZXZXZXZXZXZXZXZX",
"ZXZXZXZXZXZXZXZXZXZXZXZXZXZXZXZXZXZXZXZX                                                ZXZXZXZXZXZXZXZXZXZXZXZXZXZXZXZXZXZXZXZX",
"ZXZXZXZXZXZXZXZXZXZXZXZXZXZXZXZXZX                                                          ZXZXZXZXZXZXZXZXZXZXZXZXZXZXZXZXZXZX",
"ZXZXZXZXZXZXZXZXZXZXZXZXZXZXZXZX                                                                ZXZXZXZXZXZXZXZXZXZXZXZXZXZXZXZX",
"ZXZXZXZXZXZXZXZXZXZXZXZXZXZX                                                                        ZXZXZXZXZXZXZXZXZXZXZXZXZXZX",
"ZXZXZXZXZXZXZXZXZXZXZXZXZX                                                                            ZXZXZXZXZXZXZXZXZXZXZXZXZX",
"ZXZXZXZXZXZXZXZXZXZXZX                                                                                  ZXZXZXZXZXZXZXZXZXZXZXZX",
"ZXZXZXZXZXZXZXZXZXZX                                                                                        ZXZXZXZXZXZXZXZXZXZX",
"ZXZXZXZXZXZXZXZXZX                                                                                            ZXZXZXZXZXZXZXZXZX",
"ZXZXZXZXZXZXZXZX                        ;.m.M.B.V.C.Z.A.S.D.F.G.G.H.J.K.L.P.I.U.Y.R.T.W.E.Q.Q.~.~.!.Z           ZXZXZXZXZXZXZXZX",
"ZXZXZXZXZXZXZX                          `.CXCXCXCXCXCXCXCXCXCXCXCXCXCXCXCXCXCXCXCXCXCXCXCXCXCXCXCXCX!           ZXZXZXZXZXZXZXZX",
"ZXZXZXZXZXZXZX                          ].CXCXCXCXCXCXCXCXCXCXCXCXCXCXCXCXCXCXCXCXCXCXCXCXCXCXCXCXCX^             ZXZXZXZXZXZXZX",
"ZXZXZXZXZXZX                            _.CXCXCXCXCXCXCXCXCXCXCXCXCXCXCXCXCXCXCXCXCXCXCXCXCXCXCXCXCX`               ZXZXZXZXZXZX",
"ZXZXZXZXZX                              ).CXCXCXCXCXCXCXCXCXCXCXCXCXCXCXCXCXCXCXCXCXCXCXCXCXCXCXCXCX[                 ZXZXZXZXZX",
"ZXZXZXZXZX                              !.CXCXCXCXCXCXCXCXCXCXCXCXCXCXCXCXCXCXCXCXCXCXCXCXCXCXCXCXCX{                 ZXZXZXZXZX",
"ZXZXZXZX                                L.CXCXCXCXCXCXCXCXCXCXCXCXCXCXCXCXCXCXCXCXCXCXCXCXCXCXCXCXCX}                   ZXZXZXZX",
"ZXZXZX                                  - 5 5 3 1 > = $ + o   ; p N ' c.qXCXCXCXCXCXCXCXCXCXCXCXCXCX..                  ZXZXZXZX",
"ZXZXZX                                                                  % -.rXCXCXCXCXCXCXCXCXCXCXCXo.                    ZXZXZX",
"ZXZXZX                                                                      a &XCXCXCXCXCXCXCXCXCXCXO.                    ZXZXZX",
"ZXZX                                                                          :  XCXCXCXCXCXCXCXCXCX+.                      ZXZX",
"ZXZX                                                                            1 ;XCXCXCXCXCXCXCXCX@.                      ZXZX",
"ZX                                                                                x kXCXCXCXCXCXCXCX@.                        ZX",
"ZX                                                          f ) X.v                 l.CXCXCXCXCXCXCX#.                        ZX",
"ZX                                                      w H.nXCXCXCXoXd             j MXCXCXCXCXCXCX@.                        ZX",
"ZX                                                    > =XCXCXCXCXCXCX5Xe             ,XCXCXCXCXCXCX+.                        ZX",
"                                                      r.CXCXCXCXCXCXCXCXh.            N.CXCXCXCXCXCX+.                          ",
"                                                      -XCXCXCXCXCXCXCXCX7X            e.CXCXCXCXCXCXo.                          ",
"                                                      iXCXCXCXCXCXCXCXCXcX,.<.3.4.5.6.(.CXCXCXCXCXCXo.                          ",
"                                                    O MXCXCXCXCXCXCXCXCXCXCXCXCXCXCXCXCXCXCXCXCXCXCX .                          ",
"                          b |.XX.X X'./.G           , CXCXCXCXCXCXCXCXCXCXCXCXCXCXCXCXCXCXCXCXCXCXCX|                           ",
"                          J CXCXCXCXCXCX:.          7 CXCXCXCXCXCXCXCXCXCXCXCXCXCXCXCXCXCXCXCXCXCXCX{                           ",
"                          I CXCXCXCXCXCX:.          t CXCXCXCXCXCXCXCXCXCXCXCXCXCXCXCXCXCXCXCXCXCXCX]                           ",
"                          U CXCXCXCXCXCX>.          q CXCXCXCXCXCXCXCXCXCXCXCXCXCXCXCXCXCXCXCXCXCXCX_                           ",
"                          I CXCXCXCXCXCX1.          @ mXCXCXCXCXCXCXCXCXCXCXCXCXCXCXCXCXCXCXCXCXCXCX~                           ",
"                          H CXCXCXCXCXCX0.            eXCXCXCXCXCXCXCXCXbXo.( ^ / Q W n.CXCXCXCXCXCXW                           ",
"                          C CXCXCXCXCXCXp.            $XCXCXCXCXCXCXCXCX1X            2.CXCXCXCXCXCXR                           ",
"                          h CXCXCXCXCXCX^.            1.CXCXCXCXCXCXCXCXq.            z.CXCXCXCXCXCXD                           ",
"ZX                        % xXCXCXCXCXCX8X            & #XCXCXCXCXCXCX+X*             -XCXCXCXCXCXCXg                         ZX",
"ZX                          2XCXCXCXCXCXCXA             2 d.pXCXCXaXs.<             k MXCXCXCXCXCXyX.                         ZX",
"ZX                          b.CXCXCXCXCXCX}.                = n m =                 v.CXCXCXCXCXCX[.                          ZX",
"ZX                          F CXCXCXCXCXCXBXP                                     M lXCXCXCXCXCXCX$.                          ZX",
"ZXZX                        . :XCXCXCXCXCXCX0Xs                                 0 3XCXCXCXCXCXCXuX4                         ZXZX",
"ZXZX                          T CXCXCXCXCXCXCX>Xu                             9 %XCXCXCXCXCXCXCXy.                          ZXZX",
"ZXZXZX                          OXCXCXCXCXCXCXCX4Xc                         z <XCXCXCXCXCXCXCXwX0                         ZXZXZX",
"ZXZXZX                          l sXCXCXCXCXCXCXCXjXi.y                 y u.hXCXCXCXCXCXCXCXVXE                           ZXZXZX",
"ZXZXZX                            %.NXCXCXCXCXCXCXCXCXgX^.*.V f f B &.T.fXCXCXCXCXCXCXCXCXCXk.                          ZXZXZXZX",
"ZXZXZXZX                            f.CXCXCXCXCXCXCXCXCXCXCXCXCXCXCXCXCXCXCXCXCXCXCXCXCXCX{.#                           ZXZXZXZX",
"ZXZXZXZXZX                          X x.CXCXCXCXCXCXCXCXCXCXCXCXCXCXCXCXCXCXCXCXCXCXCXCX].:                           ZXZXZXZXZX",
"ZXZXZXZXZX                              w.vXCXCXCXCXCXCXCXCXCXCXCXCXCXCXCXCXCXCXCXCXNXg.@                             ZXZXZXZXZX",
"ZXZXZXZXZXZX                              S 6XCXCXCXCXCXCXCXCXCXCXCXCXCXCXCXCXCXCX9XY                               ZXZXZXZXZXZX",
"ZXZXZXZXZXZXZX                              1 t.tXCXCXCXCXCXCXCXCXCXCXCXCXCXCXdXa.0                               ZXZXZXZXZXZXZX",
"ZXZXZXZXZXZXZX                                  6 =.@XzXCXCXCXCXCXCXCXCXbX*X9.i                                 ZXZXZXZXZXZXZXZX",
"ZXZXZXZXZXZXZXZX                                      8 K 7.j.m.n.g.8.L r                                       ZXZXZXZXZXZXZXZX",
"ZXZXZXZXZXZXZXZXZX                                                                                            ZXZXZXZXZXZXZXZXZX",
"ZXZXZXZXZXZXZXZXZXZX                                                                                        ZXZXZXZXZXZXZXZXZXZX",
"ZXZXZXZXZXZXZXZXZXZXZX                                                                                  ZXZXZXZXZXZXZXZXZXZXZXZX",
"ZXZXZXZXZXZXZXZXZXZXZXZXZX                                                                            ZXZXZXZXZXZXZXZXZXZXZXZXZX",
"ZXZXZXZXZXZXZXZXZXZXZXZXZXZX                                                                        ZXZXZXZXZXZXZXZXZXZXZXZXZXZX",
"ZXZXZXZXZXZXZXZXZXZXZXZXZXZXZXZX                                                                ZXZXZXZXZXZXZXZXZXZXZXZXZXZXZXZX",
"ZXZXZXZXZXZXZXZXZXZXZXZXZXZXZXZXZX                                                          ZXZXZXZXZXZXZXZXZXZXZXZXZXZXZXZXZXZX",
"ZXZXZXZXZXZXZXZXZXZXZXZXZXZXZXZXZXZXZXZX                                                ZXZXZXZXZXZXZXZXZXZXZXZXZXZXZXZXZXZXZXZX",
"ZXZXZXZXZXZXZXZXZXZXZXZXZXZXZXZXZXZXZXZXZXZX                                      ZXZXZXZXZXZXZXZXZXZXZXZXZXZXZXZXZXZXZXZXZXZXZX",
"ZXZXZXZXZXZXZXZXZXZXZXZXZXZXZXZXZXZXZXZXZXZXZXZXZXZX                      ZXZXZXZXZXZXZXZXZXZXZXZXZXZXZXZXZXZXZXZXZXZXZXZXZXZXZX"
};
