/* XPM */
static char *result[] = {
/* columns rows colors chars-per-pixel */
"16 16 96 2 ",
"   c black",
".  c #010000",
"X  c #020000",
"o  c #030001",
"O  c #030003",
"+  c #070306",
"@  c #0A0005",
"#  c #0A0006",
"$  c #0C0007",
"%  c #080407",
"&  c #080607",
"*  c #0D0008",
"=  c #0F000A",
"-  c #0C030B",
";  c #0E050C",
":  c #0D090C",
">  c #150011",
",  c #150012",
"<  c #160012",
"1  c #170013",
"2  c #140212",
"3  c #160212",
"4  c #180615",
"5  c #1F021B",
"6  c #181016",
"7  c #20031B",
"8  c #21021D",
"9  c #22021C",
"0  c #22021D",
"q  c #24001F",
"w  c #22041D",
"e  c #250321",
"r  c #260122",
"t  c #260222",
"y  c #260322",
"u  c #240420",
"i  c #250421",
"p  c #260422",
"a  c #260522",
"s  c #270523",
"d  c #290424",
"f  c #280524",
"g  c #2A0426",
"h  c #2B0527",
"j  c #271D25",
"k  c #393438",
"l  c #3B363A",
"z  c #3C373B",
"x  c #3F353E",
"c  c #403B3F",
"v  c #4F3F4C",
"b  c #4D404A",
"n  c #4B4849",
"m  c #4F484D",
"M  c #544953",
"N  c #554953",
"B  c #524D52",
"V  c #5E545C",
"C  c #6F656C",
"Z  c #736A70",
"A  c #746A71",
"S  c #797077",
"D  c #797377",
"F  c #7B7279",
"G  c #81797E",
"H  c #81797F",
"J  c #898087",
"K  c #969293",
"L  c #969394",
"P  c #979596",
"I  c #9C9B9A",
"U  c #A19C9F",
"Y  c #A09E9F",
"T  c #A19DA1",
"R  c #A3A0A2",
"E  c #A6A2A5",
"W  c #A5A7A4",
"Q  c #A3ACA4",
"!  c #A4ACA4",
"~  c #ABA9AA",
"^  c #B8B5B7",
"/  c #B6BAB5",
"(  c #B7BAB7",
")  c #BAB7B9",
"_  c #BBB7BA",
"`  c #B8BAB8",
"'  c #D5D2D4",
"]  c #DBD9DB",
"[  c #E8EAE8",
"{  c #EBEAEB",
"}  c #EEEBEE",
"|  c #EEEEEE",
" . c #EFEEEF",
".. c #F5F3F5",
"X. c white",
"o. c None",
/* pixels */
"o.o.o.o.o.a a a a a a o.o.o.o.o.",
"o.o.o.a p .             = o.o.o.",
"o.o.u 5 7 C H F S A Z G v 2 o.o.",
"o.u i < 4 X.X.X.X.X.X.X.W   t o.",
"o.u u 8 w m V x n ^ X.X.K   t o.",
"u u u s f $         T X.L   t u ",
"u u h *   > j [ { O - X.Y   t u ",
"u e 3 b D X B X.X.} ' X.P   t u ",
"u r   / X.. c X.X...] X.I   t u ",
"u y   E X.6 :  .| & ; X.U   y u ",
"u a o N X.~   .     R X.M X a u ",
"o.u 0   ( X.) l z _ X.`   9 i o.",
"o.u d , % ! X.X.X.X.Q + , d u o.",
"o.o.u g 1   k J J k   1 g u o.o.",
"o.o.o.u s q @     # q s u o.o.o.",
"o.o.o.o.o.u p p p p u o.o.o.o.o."
};
