/* XPM */
static char *result[] = {
/* columns rows colors chars-per-pixel */
"128 128 81 1 ",
"  c #240420",
". c #270824",
"X c #290A25",
"o c #2D0E29",
"O c #2F112B",
"+ c #32142E",
"@ c #341731",
"# c #361933",
"$ c #391C36",
"% c #3B1E38",
"& c #3D213A",
"* c #41253D",
"= c #44283F",
"- c #452A41",
"; c #492E45",
": c #4A3047",
"> c #4D334A",
", c #50374D",
"< c #52394F",
"1 c #553C52",
"2 c #583F55",
"3 c #594156",
"4 c #5D455A",
"5 c #5F485D",
"6 c #624A5E",
"7 c #644D61",
"8 c #675164",
"9 c #695366",
"0 c #6C5669",
"q c #6E596C",
"w c #715C6E",
"e c #735E70",
"r c #756173",
"t c #786475",
"y c #7A6778",
"u c #7D6B7B",
"i c #816E7E",
"p c #857383",
"a c #897786",
"s c #8C7C8A",
"d c #948492",
"f c #978895",
"g c #988895",
"h c #9C8D9A",
"j c #9F919E",
"k c #A0929F",
"l c #A395A0",
"z c #A699A5",
"x c #A99BA6",
"c c #AB9EA9",
"v c #AEA1AC",
"b c #B0A5AF",
"n c #B2A7B1",
"m c #B5AAB4",
"M c #B8AEB7",
"N c #B9AFB8",
"B c #BBB1BA",
"V c #C0B7BF",
"C c #C4BCC3",
"Z c #C8BFC6",
"A c #C7C0C7",
"S c #C8C0C7",
"D c #CCC4CB",
"F c #D0C9CF",
"G c #D3CDD2",
"H c #D7D1D6",
"J c #D8D2D7",
"K c #DBD5DA",
"L c #DDD9DD",
"P c #E0DBDF",
"I c #E1DDE1",
"U c #E6E2E5",
"Y c #E8E5E7",
"T c #E9E6E9",
"R c #EDEAEC",
"E c #F1EFF0",
"W c #F4F3F4",
"Q c #F7F6F8",
"! c #F8F7F8",
"~ c #FFFFFF",
"^ c None",
/* pixels */
"^^^^^^^^^^^^^^^^^^^^^^^^^^^^^^^^^^^^^^^^^^^^^^^^^^^^^^^^               ^^^^^^^^^^^^^^^^^^^^^^^^^^^^^^^^^^^^^^^^^^^^^^^^^^^^^^^^^",
"^^^^^^^^^^^^^^^^^^^^^^^^^^^^^^^^^^^^^^^^^^^^^^^^^^                           ^^^^^^^^^^^^^^^^^^^^^^^^^^^^^^^^^^^^^^^^^^^^^^^^^^^",
"^^^^^^^^^^^^^^^^^^^^^^^^^^^^^^^^^^^^^^^^^^^^^^                                   ^^^^^^^^^^^^^^^^^^^^^^^^^^^^^^^^^^^^^^^^^^^^^^^",
"^^^^^^^^^^^^^^^^^^^^^^^^^^^^^^^^^^^^^^^^^^^                                         ^^^^^^^^^^^^^^^^^^^^^^^^^^^^^^^^^^^^^^^^^^^^",
"^^^^^^^^^^^^^^^^^^^^^^^^^^^^^^^^^^^^^^^^                                               ^^^^^^^^^^^^^^^^^^^^^^^^^^^^^^^^^^^^^^^^^",
"^^^^^^^^^^^^^^^^^^^^^^^^^^^^^^^^^^^^^^                                                    ^^^^^^^^^^^^^^^^^^^^^^^^^^^^^^^^^^^^^^",
"^^^^^^^^^^^^^^^^^^^^^^^^^^^^^^^^^^^^                                                        ^^^^^^^^^^^^^^^^^^^^^^^^^^^^^^^^^^^^",
"^^^^^^^^^^^^^^^^^^^^^^^^^^^^^^^^^^                                                            ^^^^^^^^^^^^^^^^^^^^^^^^^^^^^^^^^^",
"^^^^^^^^^^^^^^^^^^^^^^^^^^^^^^^^                                                                ^^^^^^^^^^^^^^^^^^^^^^^^^^^^^^^^",
"^^^^^^^^^^^^^^^^^^^^^^^^^^^^^^                                                                   ^^^^^^^^^^^^^^^^^^^^^^^^^^^^^^^",
"^^^^^^^^^^^^^^^^^^^^^^^^^^^^^                                                                      ^^^^^^^^^^^^^^^^^^^^^^^^^^^^^",
"^^^^^^^^^^^^^^^^^^^^^^^^^^^                                                                         ^^^^^^^^^^^^^^^^^^^^^^^^^^^^",
"^^^^^^^^^^^^^^^^^^^^^^^^^^                                                                            ^^^^^^^^^^^^^^^^^^^^^^^^^^",
"^^^^^^^^^^^^^^^^^^^^^^^^^                                                                              ^^^^^^^^^^^^^^^^^^^^^^^^^",
"^^^^^^^^^^^^^^^^^^^^^^^                                                                                 ^^^^^^^^^^^^^^^^^^^^^^^^",
"^^^^^^^^^^^^^^^^^^^^^^                                                                                    ^^^^^^^^^^^^^^^^^^^^^^",
"^^^^^^^^^^^^^^^^^^^^^                                                                                      ^^^^^^^^^^^^^^^^^^^^^",
"^^^^^^^^^^^^^^^^^^^^                                                                                        ^^^^^^^^^^^^^^^^^^^^",
"^^^^^^^^^^^^^^^^^^^                                                                                          ^^^^^^^^^^^^^^^^^^^",
"^^^^^^^^^^^^^^^^^^                                                                                            ^^^^^^^^^^^^^^^^^^",
"^^^^^^^^^^^^^^^^^                       o>>:>>>>>>,,><<<<11<1111122333333535355554566656667666676666;          ^^^^^^^^^^^^^^^^^",
"^^^^^^^^^^^^^^^^                        7~~~~~~~~~~~~~~~~~~~~~~~~~~~~~~~~~~~~~~~~~~~~~~~~~~~~~~~~~~~x           ^^^^^^^^^^^^^^^^",
"^^^^^^^^^^^^^^^                         9~~~~~~~~~~~~~~~~~~~~~~~~~~~~~~~~~~~~~~~~~~~~~~~~~~~~~~~~~~~x            ^^^^^^^^^^^^^^^",
"^^^^^^^^^^^^^^                          0~~~~~~~~~~~~~~~~~~~~~~~~~~~~~~~~~~~~~~~~~~~~~~~~~~~~~~~~~~~c            ^^^^^^^^^^^^^^^",
"^^^^^^^^^^^^^^                          q~~~~~~~~~~~~~~~~~~~~~~~~~~~~~~~~~~~~~~~~~~~~~~~~~~~~~~~~~~~c             ^^^^^^^^^^^^^^",
"^^^^^^^^^^^^^                           0~~~~~~~~~~~~~~~~~~~~~~~~~~~~~~~~~~~~~~~~~~~~~~~~~~~~~~~~~~~v              ^^^^^^^^^^^^^",
"^^^^^^^^^^^^                            0~~~~~~~~~~~~~~~~~~~~~~~~~~~~~~~~~~~~~~~~~~~~~~~~~~~~~~~~~~~v               ^^^^^^^^^^^^",
"^^^^^^^^^^^                             9~~~~~~~~~~~~~~~~~~~~~~~~~~~~~~~~~~~~~~~~~~~~~~~~~~~~~~~~~~~v               ^^^^^^^^^^^^",
"^^^^^^^^^^^                             8~~~~~~~~~~~~~~~~~~~~~~~~~~~~~~~~~~~~~~~~~~~~~~~~~~~~~~~~~~~n                ^^^^^^^^^^^",
"^^^^^^^^^^                              7~~~~~~~~~~~~~~~~~~~~~~~~~~~~~~~~~~~~~~~~~~~~~~~~~~~~~~~~~~~n                 ^^^^^^^^^^",
"^^^^^^^^^                               7~~~~~~~~~~~~~~~~~~~~~~~~~~~~~~~~~~~~~~~~~~~~~~~~~~~~~~~~~~~n                 ^^^^^^^^^^",
"^^^^^^^^^                               6~~~~~~~~~~~~~~~~~~~~~~~~~~~~~~~~~~~~~~~~~~~~~~~~~~~~~~~~~~~n                  ^^^^^^^^^",
"^^^^^^^^                                6~~~~~~~~~~~~~~~~~~~~~~~~~~~~~~~~~~~~~~~~~~~~~~~~~~~~~~~~~~~m                   ^^^^^^^^",
"^^^^^^^^                                1~~~~~~~~~~~~~~~~~~~~~~~~~~~~~~~~~~~~~~~~~~~~~~~~~~~~~~~~~~~m                   ^^^^^^^^",
"^^^^^^^                                  #@++++@+OOooo....   ..O%;4yhCW~~~~~~~~~~~~~~~~~~~~~~~~~~~~~m                    ^^^^^^^",
"^^^^^^^                                                               .4zW~~~~~~~~~~~~~~~~~~~~~~~~~~M                    ^^^^^^^",
"^^^^^^                                                                   +sE~~~~~~~~~~~~~~~~~~~~~~~~M                     ^^^^^^",
"^^^^^^                                                                     @n~~~~~~~~~~~~~~~~~~~~~~~M                     ^^^^^^",
"^^^^^                                                                        qW~~~~~~~~~~~~~~~~~~~~~M                      ^^^^^",
"^^^^^                                                                         -I~~~~~~~~~~~~~~~~~~~~M                      ^^^^^",
"^^^^                                                                           #H~~~~~~~~~~~~~~~~~~~M                      ^^^^^",
"^^^^                                                                            #K~~~~~~~~~~~~~~~~~~B                       ^^^^",
"^^^^                                                                             &T~~~~~~~~~~~~~~~~~M                       ^^^^",
"^^^                                                                               3~~~~~~~~~~~~~~~~~N                        ^^^",
"^^^                                                                                f~~~~~~~~~~~~~~~~B                        ^^^",
"^^^                                                                                oI~~~~~~~~~~~~~~~B                        ^^^",
"^^                                                                                  q~~~~~~~~~~~~~~~B                         ^^",
"^^                                                          OqjBCvp-                 K~~~~~~~~~~~~~~B                         ^^",
"^^                                                        OgW~~~~~~~V;               y~~~~~~~~~~~~~~N                         ^^",
"^^                                                       ,U~~~~~~~~~~Qr              +Q~~~~~~~~~~~~~B                         ^^",
"^                                                       1W~~~~~~~~~~~~~y              B~~~~~~~~~~~~~B                          ^",
"^                                                      #R~~~~~~~~~~~~~~!<             s~~~~~~~~~~~~~N                          ^",
"^                                                      m~~~~~~~~~~~~~~~~J             6~~~~~~~~~~~~~B                          ^",
"^                                                     -~~~~~~~~~~~~~~~~~~9            %~~~~~~~~~~~~~N                          ^",
"^                                                     a~~~~~~~~~~~~~~~~~~v             W~~~~~~~~~~~~N                          ^",
"^                                                     m~~~~~~~~~~~~~~~~~~H             K~~~~~~~~~~~~M                          ^",
"                                                      G~~~~~~~~~~~~~~~~~~R             D~~~~~~~~~~~~M                           ",
"                                                      R~~~~~~~~~~~~~~~~~~~FGGGGGHHHJKLI!~~~~~~~~~~~~M                           ",
"                                                      !~~~~~~~~~~~~~~~~~~~~~~~~~~~~~~~~~~~~~~~~~~~~~M                           ",
"                                                     .~~~~~~~~~~~~~~~~~~~~~~~~~~~~~~~~~~~~~~~~~~~~~~m                           ",
"                           -errrrrrwq086>            o~~~~~~~~~~~~~~~~~~~~~~~~~~~~~~~~~~~~~~~~~~~~~~m                           ",
"                           a~~~~~~~~~~~~D            +~~~~~~~~~~~~~~~~~~~~~~~~~~~~~~~~~~~~~~~~~~~~~~n                           ",
"                           s~~~~~~~~~~~~D            @~~~~~~~~~~~~~~~~~~~~~~~~~~~~~~~~~~~~~~~~~~~~~~m                           ",
"                           d~~~~~~~~~~~~D            #~~~~~~~~~~~~~~~~~~~~~~~~~~~~~~~~~~~~~~~~~~~~~~n                           ",
"                           d~~~~~~~~~~~~D            &~~~~~~~~~~~~~~~~~~~~~~~~~~~~~~~~~~~~~~~~~~~~~~n                           ",
"                           h~~~~~~~~~~~~D            &~~~~~~~~~~~~~~~~~~~~~~~~~~~~~~~~~~~~~~~~~~~~~~b                           ",
"                           h~~~~~~~~~~~~D            &~~~~~~~~~~~~~~~~~~~~~~~~~~~~~~~~~~~~~~~~~~~~~~v                           ",
"                           h~~~~~~~~~~~~D            #~~~~~~~~~~~~~~~~~~~~~~~~~~~~~~~~~~~~~~~~~~~~~~v                           ",
"                           h~~~~~~~~~~~~F            .~~~~~~~~~~~~~~~~~~~~~~~~~~~~~~~~~~~~~~~~~~~~~~v                           ",
"                           f~~~~~~~~~~~~G             Q~~~~~~~~~~~~~~~~~~~~~~~~~~~~~~~~~~~~~~~~~~~~~c                           ",
"                           d~~~~~~~~~~~~L             I~~~~~~~~~~~~~~~~~~~VnvvccvvxzzcmQ~~~~~~~~~~~~x                           ",
"                           a~~~~~~~~~~~~U             Z~~~~~~~~~~~~~~~~~~W             Z~~~~~~~~~~~~x                           ",
"^                          u~~~~~~~~~~~~Q             l~~~~~~~~~~~~~~~~~~C             D~~~~~~~~~~~~z                          ^",
"^                          w~~~~~~~~~~~~~@            w~~~~~~~~~~~~~~~~~~s             L~~~~~~~~~~~~j                          ^",
"^                          5~~~~~~~~~~~~~,            +Q~~~~~~~~~~~~~~~~!*            .!~~~~~~~~~~~~d                          ^",
"^                          :~~~~~~~~~~~~~t             j~~~~~~~~~~~~~~~~c             >~~~~~~~~~~~~~u                          ^",
"^                          O~~~~~~~~~~~~~x             +P~~~~~~~~~~~~~~I+             i~~~~~~~~~~~~~7                          ^",
"^                           T~~~~~~~~~~~~U              -Y~~~~~~~~~~~~U-              B~~~~~~~~~~~~~*                          ^",
"^^                          C~~~~~~~~~~~~~1              &A~~~~~~~~~~C$              +!~~~~~~~~~~~~W                          ^^",
"^^                          d~~~~~~~~~~~~~v                9Z~~~~~~Z9                i~~~~~~~~~~~~~C                          ^^",
"^^                          6~~~~~~~~~~~~~!&                 +5ww5+                  L~~~~~~~~~~~~~s                          ^^",
"^^                          oQ~~~~~~~~~~~~~x                                        r~~~~~~~~~~~~~~,                          ^^",
"^^^                          m~~~~~~~~~~~~~~<                                      OT~~~~~~~~~~~~~I                          ^^^",
"^^^                          6~~~~~~~~~~~~~~J.                                     z~~~~~~~~~~~~~~d                          ^^^",
"^^^                           H~~~~~~~~~~~~~~h                                    0~~~~~~~~~~~~~~~*                          ^^^",
"^^^^                          q~~~~~~~~~~~~~~~q                                  :W~~~~~~~~~~~~~~B                          ^^^^",
"^^^^                           H~~~~~~~~~~~~~~!3                                -T~~~~~~~~~~~~~~~1                          ^^^^",
"^^^^                           7~~~~~~~~~~~~~~~W3                              ;Y~~~~~~~~~~~~~~~V                          ^^^^^",
"^^^^^                           C~~~~~~~~~~~~~~~Qq                            6R~~~~~~~~~~~~~~~~;                          ^^^^^",
"^^^^^                           -!~~~~~~~~~~~~~~~~j.                        .d~~~~~~~~~~~~~~~~~h                           ^^^^^",
"^^^^^^                           s~~~~~~~~~~~~~~~~~L6                      2J~~~~~~~~~~~~~~~~~I+                          ^^^^^^",
"^^^^^^                           .G~~~~~~~~~~~~~~~~~~V3                  2B~~~~~~~~~~~~~~~~~~~2                           ^^^^^^",
"^^^^^^^                           -W~~~~~~~~~~~~~~~~~~~Hp*            &pH~~~~~~~~~~~~~~~~~~~~s                           ^^^^^^^",
"^^^^^^^                            9~~~~~~~~~~~~~~~~~~~~~~Lvp8<;;<7pcL~~~~~~~~~~~~~~~~~~~~~~N                            ^^^^^^^",
"^^^^^^^^                            s~~~~~~~~~~~~~~~~~~~~~~~~~~~~~~~~~~~~~~~~~~~~~~~~~~~~~~Fo                           ^^^^^^^^",
"^^^^^^^^                             z~~~~~~~~~~~~~~~~~~~~~~~~~~~~~~~~~~~~~~~~~~~~~~~~~~~~K@                            ^^^^^^^^",
"^^^^^^^^^                             v~~~~~~~~~~~~~~~~~~~~~~~~~~~~~~~~~~~~~~~~~~~~~~~~~~J$                            ^^^^^^^^^",
"^^^^^^^^^                              l~~~~~~~~~~~~~~~~~~~~~~~~~~~~~~~~~~~~~~~~~~~~~~~~D+                            ^^^^^^^^^^",
"^^^^^^^^^^                              s~~~~~~~~~~~~~~~~~~~~~~~~~~~~~~~~~~~~~~~~~~~~~~no                             ^^^^^^^^^^",
"^^^^^^^^^^^                              7E~~~~~~~~~~~~~~~~~~~~~~~~~~~~~~~~~~~~~~~~~~!a                              ^^^^^^^^^^^",
"^^^^^^^^^^^                               &D~~~~~~~~~~~~~~~~~~~~~~~~~~~~~~~~~~~~~~~~P1                              ^^^^^^^^^^^^",
"^^^^^^^^^^^^                                aW~~~~~~~~~~~~~~~~~~~~~~~~~~~~~~~~~~~~~ho                               ^^^^^^^^^^^^",
"^^^^^^^^^^^^^                                %b~~~~~~~~~~~~~~~~~~~~~~~~~~~~~~~~~~D:                                ^^^^^^^^^^^^^",
"^^^^^^^^^^^^^^                                 >m~~~~~~~~~~~~~~~~~~~~~~~~~~~~~~G7                                 ^^^^^^^^^^^^^^",
"^^^^^^^^^^^^^^                                   =hR~~~~~~~~~~~~~~~~~~~~~~~~!m3                                  ^^^^^^^^^^^^^^^",
"^^^^^^^^^^^^^^^                                    o7cT~~~~~~~~~~~~~~~~~~WBr@                                   ^^^^^^^^^^^^^^^^",
"^^^^^^^^^^^^^^^^                                       ;ycDR~~~~~~~~RFxi>.                                      ^^^^^^^^^^^^^^^^",
"^^^^^^^^^^^^^^^^^                                           o&:,>;%o                                           ^^^^^^^^^^^^^^^^^",
"^^^^^^^^^^^^^^^^^^                                                                                            ^^^^^^^^^^^^^^^^^^",
"^^^^^^^^^^^^^^^^^^^                                                                                          ^^^^^^^^^^^^^^^^^^^",
"^^^^^^^^^^^^^^^^^^^^                                                                                        ^^^^^^^^^^^^^^^^^^^^",
"^^^^^^^^^^^^^^^^^^^^^                                                                                      ^^^^^^^^^^^^^^^^^^^^^",
"^^^^^^^^^^^^^^^^^^^^^^                                                                                   ^^^^^^^^^^^^^^^^^^^^^^^",
"^^^^^^^^^^^^^^^^^^^^^^^                                                                                 ^^^^^^^^^^^^^^^^^^^^^^^^",
"^^^^^^^^^^^^^^^^^^^^^^^^^                                                                              ^^^^^^^^^^^^^^^^^^^^^^^^^",
"^^^^^^^^^^^^^^^^^^^^^^^^^^                                                                            ^^^^^^^^^^^^^^^^^^^^^^^^^^",
"^^^^^^^^^^^^^^^^^^^^^^^^^^^                                                                         ^^^^^^^^^^^^^^^^^^^^^^^^^^^^",
"^^^^^^^^^^^^^^^^^^^^^^^^^^^^^                                                                      ^^^^^^^^^^^^^^^^^^^^^^^^^^^^^",
"^^^^^^^^^^^^^^^^^^^^^^^^^^^^^^                                                                   ^^^^^^^^^^^^^^^^^^^^^^^^^^^^^^^",
"^^^^^^^^^^^^^^^^^^^^^^^^^^^^^^^^                                                               ^^^^^^^^^^^^^^^^^^^^^^^^^^^^^^^^^",
"^^^^^^^^^^^^^^^^^^^^^^^^^^^^^^^^^^                                                            ^^^^^^^^^^^^^^^^^^^^^^^^^^^^^^^^^^",
"^^^^^^^^^^^^^^^^^^^^^^^^^^^^^^^^^^^^                                                        ^^^^^^^^^^^^^^^^^^^^^^^^^^^^^^^^^^^^",
"^^^^^^^^^^^^^^^^^^^^^^^^^^^^^^^^^^^^^^                                                    ^^^^^^^^^^^^^^^^^^^^^^^^^^^^^^^^^^^^^^",
"^^^^^^^^^^^^^^^^^^^^^^^^^^^^^^^^^^^^^^^^                                               ^^^^^^^^^^^^^^^^^^^^^^^^^^^^^^^^^^^^^^^^^",
"^^^^^^^^^^^^^^^^^^^^^^^^^^^^^^^^^^^^^^^^^^^                                         ^^^^^^^^^^^^^^^^^^^^^^^^^^^^^^^^^^^^^^^^^^^^",
"^^^^^^^^^^^^^^^^^^^^^^^^^^^^^^^^^^^^^^^^^^^^^^                                   ^^^^^^^^^^^^^^^^^^^^^^^^^^^^^^^^^^^^^^^^^^^^^^^",
"^^^^^^^^^^^^^^^^^^^^^^^^^^^^^^^^^^^^^^^^^^^^^^^^^^                           ^^^^^^^^^^^^^^^^^^^^^^^^^^^^^^^^^^^^^^^^^^^^^^^^^^^",
"^^^^^^^^^^^^^^^^^^^^^^^^^^^^^^^^^^^^^^^^^^^^^^^^^^^^^^^^^              ^^^^^^^^^^^^^^^^^^^^^^^^^^^^^^^^^^^^^^^^^^^^^^^^^^^^^^^^^"
};
